<svg width="37" height="37" viewBox="0 0 37 37" fill="none" xmlns="http://www.w3.org/2000/svg">
<path d="M32.375 28.1816V18.0683C32.7919 17.8364 33.1493 17.5109 33.4191 17.1174C33.6889 16.7239 33.8638 16.2731 33.9298 15.8006C33.9959 15.3281 33.9514 14.8467 33.7998 14.3943C33.6483 13.9419 33.3938 13.5309 33.0564 13.1935C32.719 12.8561 32.308 12.6017 31.8556 12.4501C31.4032 12.2985 30.9218 12.254 30.4493 12.3201C29.9768 12.3862 29.526 12.561 29.1325 12.8308C28.7391 13.1006 28.4135 13.458 28.1816 13.875H23.125V8.81829C23.5419 8.58637 23.8993 8.26085 24.1691 7.86736C24.4389 7.47387 24.6138 7.02313 24.6798 6.55062C24.7459 6.0781 24.7014 5.59671 24.5498 5.14431C24.3983 4.69191 24.1438 4.28086 23.8064 3.94349C23.469 3.60613 23.058 3.35165 22.6056 3.2001C22.1532 3.04855 21.6718 3.00404 21.1993 3.0701C20.7268 3.13615 20.276 3.31096 19.8825 3.58076C19.4891 3.85057 19.1635 4.20801 18.9316 4.62495H8.81829C8.58637 4.20801 8.26085 3.85057 7.86736 3.58076C7.47387 3.31096 7.02313 3.13615 6.55062 3.0701C6.0781 3.00404 5.59671 3.04855 5.14431 3.2001C4.69191 3.35165 4.28086 3.60613 3.94349 3.94349C3.60613 4.28086 3.35165 4.69191 3.2001 5.14431C3.04855 5.59671 3.00404 6.0781 3.0701 6.55062C3.13615 7.02313 3.31096 7.47387 3.58076 7.86736C3.85057 8.26085 4.20801 8.58637 4.62495 8.81829V18.9316C4.20801 19.1635 3.85057 19.4891 3.58076 19.8825C3.31096 20.276 3.13615 20.7268 3.0701 21.1993C3.00404 21.6718 3.04855 22.1532 3.2001 22.6056C3.35165 23.058 3.60613 23.469 3.94349 23.8064C4.28086 24.1438 4.69191 24.3983 5.14431 24.5498C5.59671 24.7014 6.0781 24.7459 6.55062 24.6798C7.02313 24.6138 7.47387 24.4389 7.86736 24.1691C8.26085 23.8993 8.58637 23.5419 8.81829 23.125H13.875V28.1816C13.458 28.4135 13.1006 28.7391 12.8308 29.1325C12.561 29.526 12.3862 29.9768 12.3201 30.4493C12.254 30.9218 12.2985 31.4032 12.4501 31.8556C12.6017 32.308 12.8561 32.719 13.1935 33.0564C13.5309 33.3938 13.9419 33.6483 14.3943 33.7998C14.8467 33.9514 15.3281 33.9959 15.8006 33.9298C16.2731 33.8638 16.7239 33.6889 17.1174 33.4191C17.5109 33.1493 17.8364 32.7919 18.0683 32.375H28.1816C28.4135 32.7919 28.7391 33.1493 29.1325 33.4191C29.526 33.6889 29.9768 33.8638 30.4493 33.9298C30.9218 33.9959 31.4032 33.9514 31.8556 33.7998C32.308 33.6483 32.719 33.3938 33.0564 33.0564C33.3938 32.719 33.6483 32.308 33.7998 31.8556C33.9514 31.4032 33.9959 30.9218 33.9298 30.4493C33.8638 29.9768 33.6889 29.526 33.4191 29.1325C33.1493 28.7391 32.7919 28.4135 32.375 28.1816ZM12.3333 15.4166C12.3365 15.9547 12.4805 16.4826 12.751 16.9478C13.0215 17.4129 13.4089 17.7993 13.875 18.0683V20.0416H8.81829C8.55554 19.578 8.17191 19.1944 7.70829 18.9316V8.81829C8.17191 8.55554 8.55554 8.17191 8.81829 7.70829H18.9316C19.1944 8.17191 19.578 8.55554 20.0416 8.81829V13.875H18.0683C17.725 13.2962 17.2017 12.8457 16.5784 12.5921C15.9551 12.3385 15.2659 12.2958 14.616 12.4705C13.9662 12.6452 13.3913 13.0277 12.9791 13.5596C12.567 14.0915 12.3402 14.7437 12.3333 15.4166ZM20.0416 16.9583V18.9316C19.578 19.1944 19.1944 19.578 18.9316 20.0416H16.9583V18.0683C17.4219 17.8055 17.8055 17.4219 18.0683 16.9583H20.0416ZM29.2916 28.1816C28.828 28.4444 28.4444 28.828 28.1816 29.2916H18.0683C17.8055 28.828 17.4219 28.4444 16.9583 28.1816V23.125H18.9316C19.1635 23.5419 19.4891 23.8993 19.8825 24.1691C20.276 24.4389 20.7268 24.6138 21.1993 24.6798C21.6718 24.7459 22.1532 24.7014 22.6056 24.5498C23.058 24.3983 23.469 24.1438 23.8064 23.8064C24.1438 23.469 24.3983 23.058 24.5498 22.6056C24.7014 22.1532 24.7459 21.6718 24.6798 21.1993C24.6138 20.7268 24.4389 20.276 24.1691 19.8825C23.8993 19.4891 23.5419 19.1635 23.125 18.9316V16.9583H28.1816C28.4444 17.4219 28.828 17.8055 29.2916 18.0683V28.1816Z" fill="#5956E8"/>
</svg>
